<svg version="1.1" id="Layer_1" xmlns="http://www.w3.org/2000/svg" xmlns:xlink="http://www.w3.org/1999/xlink" x="0px" y="0px"
	 width="100%" viewBox="0 0 1024 784" enable-background="new 0 0 1024 784" xml:space="preserve">
<path fill="#000000" opacity="1.000000" stroke="none" 
	d="
M669.238525,374.021851 
	C676.359558,426.469727 660.036194,469.936646 620.243469,503.858521 
	C592.829651,527.227783 560.239258,537.208740 524.276672,535.111572 
	C503.433258,533.895996 483.621002,528.446411 465.144989,518.380005 
	C461.110687,516.181946 460.806915,514.266235 463.274628,510.679443 
	C468.371338,503.271423 473.260071,495.713257 478.011871,488.078430 
	C480.009003,484.869568 481.857208,484.382965 485.322815,486.170807 
	C527.243530,507.796753 575.852478,499.699219 607.138428,464.683624 
	C633.118530,435.606476 640.975830,401.375000 628.512695,364.221649 
	C616.163147,327.406830 589.419373,305.398712 551.594727,297.425201 
	C512.392944,289.161438 469.243103,307.570648 446.847595,343.746185 
	C426.774353,376.170532 405.340637,407.771729 383.898102,439.322174 
	C370.851227,458.519287 351.405273,464.776215 328.936493,463.127594 
	C327.613525,463.030548 326.309143,462.639343 324.816284,460.924286 
	C328.120636,455.733246 331.474701,450.266296 335.019775,444.926208 
	C364.044373,401.205841 392.922394,357.386505 422.223358,313.851990 
	C439.312927,288.460815 463.766876,272.644684 492.701782,264.173584 
	C544.870544,248.900497 591.008667,260.981781 630.155518,298.061432 
	C651.672852,318.442505 664.142334,344.294556 669.238525,374.021851 
z"/>
<path fill="#000000" opacity="1.000000" stroke="none" 
	d="
M546.634705,461.997681 
	C532.938110,464.530670 520.018555,463.443390 507.546906,458.097839 
	C501.614288,455.555084 501.395782,454.765045 504.825623,449.520599 
	C509.567505,442.269897 514.398560,435.072845 518.941650,427.698944 
	C520.988708,424.376434 523.152527,423.429626 527.143738,424.292480 
	C541.981323,427.500183 554.013611,421.001984 559.866333,407.141602 
	C564.693420,395.710480 559.954346,380.636780 549.140320,373.024994 
	C536.607361,364.203278 518.731995,366.752319 510.013489,379.471893 
	C496.453125,399.255371 483.564880,419.498749 470.334595,439.509430 
	C454.902588,462.850128 439.809143,486.429108 423.811676,509.376862 
	C411.678375,526.781616 393.988892,534.293579 372.921112,533.947510 
	C368.679810,533.877869 367.892334,533.479248 364.703705,531.325073 
	C369.848938,523.422607 374.967590,515.482117 380.163940,507.592834 
	C410.498169,461.538055 440.858887,415.500702 471.189270,369.443390 
	C476.674530,361.113892 481.501587,352.363434 489.302612,345.728119 
	C527.001282,313.663025 586.495300,333.185486 597.651550,381.363739 
	C606.134644,417.998016 584.206177,452.897949 546.634705,461.997681 
z"/>
</svg>